<?xml version="1.0" encoding="utf-8" standalone="no"?>
<!DOCTYPE svg PUBLIC "-//W3C//DTD SVG 1.1//EN"
  "http://www.w3.org/Graphics/SVG/1.1/DTD/svg11.dtd">
<svg xmlns:xlink="http://www.w3.org/1999/xlink" width="921.6pt" height="345.6pt" viewBox="0 0 921.6 345.6" xmlns="http://www.w3.org/2000/svg" version="1.1">
 <metadata>
  <rdf:RDF xmlns:dc="http://purl.org/dc/elements/1.1/" xmlns:cc="http://creativecommons.org/ns#" xmlns:rdf="http://www.w3.org/1999/02/22-rdf-syntax-ns#">
   <cc:Work>
    <dc:type rdf:resource="http://purl.org/dc/dcmitype/StillImage"/>
    <dc:date>2023-12-07T00:19:52.388054</dc:date>
    <dc:format>image/svg+xml</dc:format>
    <dc:creator>
     <cc:Agent>
      <dc:title>Matplotlib v3.7.4, https://matplotlib.org/</dc:title>
     </cc:Agent>
    </dc:creator>
   </cc:Work>
  </rdf:RDF>
 </metadata>
 <defs>
  <style type="text/css">*{stroke-linejoin: round; stroke-linecap: butt}</style>
 </defs>
 <g id="figure_1">
  <g id="patch_1">
   <path d="M 0 345.6 
L 921.6 345.6 
L 921.6 0 
L 0 0 
z
" style="fill: #ffffff"/>
  </g>
  <g id="axes_1">
   <g id="patch_2">
    <path d="M 115.2 307.584 
L 439.854545 307.584 
L 439.854545 41.472 
L 115.2 41.472 
z
" style="fill: #ffffff"/>
   </g>
   <g id="patch_3">
    <path d="M 123.316364 307.584 
L 134.138182 307.584 
L 134.138182 131.307838 
L 123.316364 131.307838 
z
" clip-path="url(#p9b3633577c)" style="fill: #145d76"/>
   </g>
   <g id="patch_4">
    <path d="M 204.48 307.584 
L 215.301818 307.584 
L 215.301818 131.307838 
L 204.48 131.307838 
z
" clip-path="url(#p9b3633577c)" style="fill: #145d76"/>
   </g>
   <g id="patch_5">
    <path d="M 285.643636 307.584 
L 296.465455 307.584 
L 296.465455 131.307838 
L 285.643636 131.307838 
z
" clip-path="url(#p9b3633577c)" style="fill: #145d76"/>
   </g>
   <g id="patch_6">
    <path d="M 366.807273 307.584 
L 377.629091 307.584 
L 377.629091 131.307838 
L 366.807273 131.307838 
z
" clip-path="url(#p9b3633577c)" style="fill: #145d76"/>
   </g>
   <g id="patch_7">
    <path d="M 134.138182 307.584 
L 144.96 307.584 
L 144.96 56.387283 
L 134.138182 56.387283 
z
" clip-path="url(#p9b3633577c)" style="fill: #389993"/>
   </g>
   <g id="patch_8">
    <path d="M 215.301818 307.584 
L 226.123636 307.584 
L 226.123636 123.099462 
L 215.301818 123.099462 
z
" clip-path="url(#p9b3633577c)" style="fill: #389993"/>
   </g>
   <g id="patch_9">
    <path d="M 296.465455 307.584 
L 307.287273 307.584 
L 307.287273 152.924929 
L 296.465455 152.924929 
z
" clip-path="url(#p9b3633577c)" style="fill: #389993"/>
   </g>
   <g id="patch_10">
    <path d="M 377.629091 307.584 
L 388.450909 307.584 
L 388.450909 187.211471 
L 377.629091 187.211471 
z
" clip-path="url(#p9b3633577c)" style="fill: #389993"/>
   </g>
   <g id="patch_11">
    <path d="M 144.96 307.584 
L 155.781818 307.584 
L 155.781818 54.144 
L 144.96 54.144 
z
" clip-path="url(#p9b3633577c)" style="fill: #bfa686"/>
   </g>
   <g id="patch_12">
    <path d="M 226.123636 307.584 
L 236.945455 307.584 
L 236.945455 130.92546 
L 226.123636 130.92546 
z
" clip-path="url(#p9b3633577c)" style="fill: #bfa686"/>
   </g>
   <g id="patch_13">
    <path d="M 307.287273 307.584 
L 318.109091 307.584 
L 318.109091 179.742358 
L 307.287273 179.742358 
z
" clip-path="url(#p9b3633577c)" style="fill: #bfa686"/>
   </g>
   <g id="patch_14">
    <path d="M 388.450909 307.584 
L 399.272727 307.584 
L 399.272727 164.090361 
L 388.450909 164.090361 
z
" clip-path="url(#p9b3633577c)" style="fill: #bfa686"/>
   </g>
   <g id="patch_15">
    <path d="M 155.781818 307.584 
L 166.603636 307.584 
L 166.603636 54.144 
L 155.781818 54.144 
z
" clip-path="url(#p9b3633577c)" style="fill: #d89932"/>
   </g>
   <g id="patch_16">
    <path d="M 236.945455 307.584 
L 247.767273 307.584 
L 247.767273 126.821272 
L 236.945455 126.821272 
z
" clip-path="url(#p9b3633577c)" style="fill: #d89932"/>
   </g>
   <g id="patch_17">
    <path d="M 318.109091 307.584 
L 328.930909 307.584 
L 328.930909 150.681646 
L 318.109091 150.681646 
z
" clip-path="url(#p9b3633577c)" style="fill: #d89932"/>
   </g>
   <g id="patch_18">
    <path d="M 399.272727 307.584 
L 410.094545 307.584 
L 410.094545 223.741296 
L 399.272727 223.741296 
z
" clip-path="url(#p9b3633577c)" style="fill: #d89932"/>
   </g>
   <g id="patch_19">
    <path d="M 166.603636 307.584 
L 177.425455 307.584 
L 177.425455 55.648019 
L 166.603636 55.648019 
z
" clip-path="url(#p9b3633577c)" style="fill: #efc2cb"/>
   </g>
   <g id="patch_20">
    <path d="M 247.767273 307.584 
L 258.589091 307.584 
L 258.589091 127.942914 
L 247.767273 127.942914 
z
" clip-path="url(#p9b3633577c)" style="fill: #efc2cb"/>
   </g>
   <g id="patch_21">
    <path d="M 328.930909 307.584 
L 339.752727 307.584 
L 339.752727 129.803819 
L 328.930909 129.803819 
z
" clip-path="url(#p9b3633577c)" style="fill: #efc2cb"/>
   </g>
   <g id="patch_22">
    <path d="M 410.094545 307.584 
L 420.916364 307.584 
L 420.916364 204.341996 
L 410.094545 204.341996 
z
" clip-path="url(#p9b3633577c)" style="fill: #efc2cb"/>
   </g>
   <g id="patch_23">
    <path d="M 177.425455 307.584 
L 188.247273 307.584 
L 188.247273 54.144 
L 177.425455 54.144 
z
" clip-path="url(#p9b3633577c)" style="fill: #cd3733"/>
   </g>
   <g id="patch_24">
    <path d="M 258.589091 307.584 
L 269.410909 307.584 
L 269.410909 128.325291 
L 258.589091 128.325291 
z
" clip-path="url(#p9b3633577c)" style="fill: #cd3733"/>
   </g>
   <g id="patch_25">
    <path d="M 339.752727 307.584 
L 350.574545 307.584 
L 350.574545 152.185666 
L 339.752727 152.185666 
z
" clip-path="url(#p9b3633577c)" style="fill: #cd3733"/>
   </g>
   <g id="patch_26">
    <path d="M 420.916364 307.584 
L 431.738182 307.584 
L 431.738182 219.25473 
L 420.916364 219.25473 
z
" clip-path="url(#p9b3633577c)" style="fill: #cd3733"/>
   </g>
   <g id="patch_27">
    <path d="M 155.781818 307.584 
L 155.781818 307.584 
L 155.781818 307.584 
L 155.781818 307.584 
z
" clip-path="url(#p9b3633577c)" style="fill: #145d76"/>
   </g>
   <g id="patch_28">
    <path d="M 155.781818 307.584 
L 155.781818 307.584 
L 155.781818 307.584 
L 155.781818 307.584 
z
" clip-path="url(#p9b3633577c)" style="fill: #389993"/>
   </g>
   <g id="patch_29">
    <path d="M 155.781818 307.584 
L 155.781818 307.584 
L 155.781818 307.584 
L 155.781818 307.584 
z
" clip-path="url(#p9b3633577c)" style="fill: #bfa686"/>
   </g>
   <g id="patch_30">
    <path d="M 155.781818 307.584 
L 155.781818 307.584 
L 155.781818 307.584 
L 155.781818 307.584 
z
" clip-path="url(#p9b3633577c)" style="fill: #d89932"/>
   </g>
   <g id="patch_31">
    <path d="M 155.781818 307.584 
L 155.781818 307.584 
L 155.781818 307.584 
L 155.781818 307.584 
z
" clip-path="url(#p9b3633577c)" style="fill: #efc2cb"/>
   </g>
   <g id="patch_32">
    <path d="M 155.781818 307.584 
L 155.781818 307.584 
L 155.781818 307.584 
L 155.781818 307.584 
z
" clip-path="url(#p9b3633577c)" style="fill: #cd3733"/>
   </g>
   <g id="matplotlib.axis_1">
    <g id="xtick_1">
     <g id="line2d_1">
      <defs>
       <path id="m03dbc7b070" d="M 0 0 
L 0 3.5 
" style="stroke: #000000; stroke-width: 0.8"/>
      </defs>
      <g>
       <use xlink:href="#m03dbc7b070" x="155.781818" y="307.584" style="stroke: #000000; stroke-width: 0.8"/>
      </g>
     </g>
     <g id="text_1">
      <text style="font: 10px 'Times'; text-anchor: middle" x="155.781818" y="321.44025" transform="rotate(-0 155.781818 321.44025)">raw</text>
     </g>
    </g>
    <g id="xtick_2">
     <g id="line2d_2">
      <g>
       <use xlink:href="#m03dbc7b070" x="236.945455" y="307.584" style="stroke: #000000; stroke-width: 0.8"/>
      </g>
     </g>
     <g id="text_2">
      <text style="font: 10px 'Times'; text-anchor: middle" x="236.945455" y="321.44025" transform="rotate(-0 236.945455 321.44025)">pca</text>
     </g>
    </g>
    <g id="xtick_3">
     <g id="line2d_3">
      <g>
       <use xlink:href="#m03dbc7b070" x="318.109091" y="307.584" style="stroke: #000000; stroke-width: 0.8"/>
      </g>
     </g>
     <g id="text_3">
      <text style="font: 10px 'Times'; text-anchor: middle" x="318.109091" y="321.44025" transform="rotate(-0 318.109091 321.44025)">umap</text>
     </g>
    </g>
    <g id="xtick_4">
     <g id="line2d_4">
      <g>
       <use xlink:href="#m03dbc7b070" x="399.272727" y="307.584" style="stroke: #000000; stroke-width: 0.8"/>
      </g>
     </g>
     <g id="text_4">
      <text style="font: 10px 'Times'; text-anchor: middle" x="399.272727" y="321.44025" transform="rotate(-0 399.272727 321.44025)">pca_umap</text>
     </g>
    </g>
    <g id="text_5">
     <text style="font: 10px 'Times'; text-anchor: middle" x="277.527273" y="334.46525" transform="rotate(-0 277.527273 334.46525)">Data Type</text>
    </g>
   </g>
   <g id="matplotlib.axis_2">
    <g id="ytick_1">
     <g id="line2d_5">
      <defs>
       <path id="m71e3c5c0c1" d="M 0 0 
L -3.5 0 
" style="stroke: #000000; stroke-width: 0.8"/>
      </defs>
      <g>
       <use xlink:href="#m71e3c5c0c1" x="115.2" y="307.584" style="stroke: #000000; stroke-width: 0.8"/>
      </g>
     </g>
     <g id="text_6">
      <text style="font: 10px 'Times'; text-anchor: end" x="108.2" y="311.012125" transform="rotate(-0 108.2 311.012125)">0.0</text>
     </g>
    </g>
    <g id="ytick_2">
     <g id="line2d_6">
      <g>
       <use xlink:href="#m71e3c5c0c1" x="115.2" y="256.600295" style="stroke: #000000; stroke-width: 0.8"/>
      </g>
     </g>
     <g id="text_7">
      <text style="font: 10px 'Times'; text-anchor: end" x="108.2" y="260.02842" transform="rotate(-0 108.2 260.02842)">0.2</text>
     </g>
    </g>
    <g id="ytick_3">
     <g id="line2d_7">
      <g>
       <use xlink:href="#m71e3c5c0c1" x="115.2" y="205.616589" style="stroke: #000000; stroke-width: 0.8"/>
      </g>
     </g>
     <g id="text_8">
      <text style="font: 10px 'Times'; text-anchor: end" x="108.2" y="209.044714" transform="rotate(-0 108.2 209.044714)">0.4</text>
     </g>
    </g>
    <g id="ytick_4">
     <g id="line2d_8">
      <g>
       <use xlink:href="#m71e3c5c0c1" x="115.2" y="154.632884" style="stroke: #000000; stroke-width: 0.8"/>
      </g>
     </g>
     <g id="text_9">
      <text style="font: 10px 'Times'; text-anchor: end" x="108.2" y="158.061009" transform="rotate(-0 108.2 158.061009)">0.6</text>
     </g>
    </g>
    <g id="ytick_5">
     <g id="line2d_9">
      <g>
       <use xlink:href="#m71e3c5c0c1" x="115.2" y="103.649178" style="stroke: #000000; stroke-width: 0.8"/>
      </g>
     </g>
     <g id="text_10">
      <text style="font: 10px 'Times'; text-anchor: end" x="108.2" y="107.077303" transform="rotate(-0 108.2 107.077303)">0.8</text>
     </g>
    </g>
    <g id="ytick_6">
     <g id="line2d_10">
      <g>
       <use xlink:href="#m71e3c5c0c1" x="115.2" y="52.665473" style="stroke: #000000; stroke-width: 0.8"/>
      </g>
     </g>
     <g id="text_11">
      <text style="font: 10px 'Times'; text-anchor: end" x="108.2" y="56.093598" transform="rotate(-0 108.2 56.093598)">1.0</text>
     </g>
    </g>
    <g id="text_12">
     <text style="font: 10px 'Times'; text-anchor: middle" x="89.5125" y="174.528" transform="rotate(-90 89.5125 174.528)">Accuracy</text>
    </g>
   </g>
   <g id="line2d_11">
    <path clip-path="url(#p9b3633577c)" style="fill: none; stroke: #424242; stroke-width: 2.25; stroke-linecap: square"/>
   </g>
   <g id="line2d_12">
    <path clip-path="url(#p9b3633577c)" style="fill: none; stroke: #424242; stroke-width: 2.25; stroke-linecap: square"/>
   </g>
   <g id="line2d_13">
    <path clip-path="url(#p9b3633577c)" style="fill: none; stroke: #424242; stroke-width: 2.25; stroke-linecap: square"/>
   </g>
   <g id="line2d_14">
    <path clip-path="url(#p9b3633577c)" style="fill: none; stroke: #424242; stroke-width: 2.25; stroke-linecap: square"/>
   </g>
   <g id="line2d_15">
    <path clip-path="url(#p9b3633577c)" style="fill: none; stroke: #424242; stroke-width: 2.25; stroke-linecap: square"/>
   </g>
   <g id="line2d_16">
    <path clip-path="url(#p9b3633577c)" style="fill: none; stroke: #424242; stroke-width: 2.25; stroke-linecap: square"/>
   </g>
   <g id="line2d_17">
    <path clip-path="url(#p9b3633577c)" style="fill: none; stroke: #424242; stroke-width: 2.25; stroke-linecap: square"/>
   </g>
   <g id="line2d_18">
    <path clip-path="url(#p9b3633577c)" style="fill: none; stroke: #424242; stroke-width: 2.25; stroke-linecap: square"/>
   </g>
   <g id="line2d_19">
    <path clip-path="url(#p9b3633577c)" style="fill: none; stroke: #424242; stroke-width: 2.25; stroke-linecap: square"/>
   </g>
   <g id="line2d_20">
    <path clip-path="url(#p9b3633577c)" style="fill: none; stroke: #424242; stroke-width: 2.25; stroke-linecap: square"/>
   </g>
   <g id="line2d_21">
    <path clip-path="url(#p9b3633577c)" style="fill: none; stroke: #424242; stroke-width: 2.25; stroke-linecap: square"/>
   </g>
   <g id="line2d_22">
    <path clip-path="url(#p9b3633577c)" style="fill: none; stroke: #424242; stroke-width: 2.25; stroke-linecap: square"/>
   </g>
   <g id="line2d_23">
    <path clip-path="url(#p9b3633577c)" style="fill: none; stroke: #424242; stroke-width: 2.25; stroke-linecap: square"/>
   </g>
   <g id="line2d_24">
    <path clip-path="url(#p9b3633577c)" style="fill: none; stroke: #424242; stroke-width: 2.25; stroke-linecap: square"/>
   </g>
   <g id="line2d_25">
    <path clip-path="url(#p9b3633577c)" style="fill: none; stroke: #424242; stroke-width: 2.25; stroke-linecap: square"/>
   </g>
   <g id="line2d_26">
    <path clip-path="url(#p9b3633577c)" style="fill: none; stroke: #424242; stroke-width: 2.25; stroke-linecap: square"/>
   </g>
   <g id="line2d_27">
    <path clip-path="url(#p9b3633577c)" style="fill: none; stroke: #424242; stroke-width: 2.25; stroke-linecap: square"/>
   </g>
   <g id="line2d_28">
    <path clip-path="url(#p9b3633577c)" style="fill: none; stroke: #424242; stroke-width: 2.25; stroke-linecap: square"/>
   </g>
   <g id="line2d_29">
    <path clip-path="url(#p9b3633577c)" style="fill: none; stroke: #424242; stroke-width: 2.25; stroke-linecap: square"/>
   </g>
   <g id="line2d_30">
    <path clip-path="url(#p9b3633577c)" style="fill: none; stroke: #424242; stroke-width: 2.25; stroke-linecap: square"/>
   </g>
   <g id="line2d_31">
    <path clip-path="url(#p9b3633577c)" style="fill: none; stroke: #424242; stroke-width: 2.25; stroke-linecap: square"/>
   </g>
   <g id="line2d_32">
    <path clip-path="url(#p9b3633577c)" style="fill: none; stroke: #424242; stroke-width: 2.25; stroke-linecap: square"/>
   </g>
   <g id="line2d_33">
    <path clip-path="url(#p9b3633577c)" style="fill: none; stroke: #424242; stroke-width: 2.25; stroke-linecap: square"/>
   </g>
   <g id="line2d_34">
    <path clip-path="url(#p9b3633577c)" style="fill: none; stroke: #424242; stroke-width: 2.25; stroke-linecap: square"/>
   </g>
   <g id="patch_33">
    <path d="M 115.2 307.584 
L 115.2 41.472 
" style="fill: none; stroke: #000000; stroke-width: 0.8; stroke-linejoin: miter; stroke-linecap: square"/>
   </g>
   <g id="patch_34">
    <path d="M 439.854545 307.584 
L 439.854545 41.472 
" style="fill: none; stroke: #000000; stroke-width: 0.8; stroke-linejoin: miter; stroke-linecap: square"/>
   </g>
   <g id="patch_35">
    <path d="M 115.2 307.584 
L 439.854545 307.584 
" style="fill: none; stroke: #000000; stroke-width: 0.8; stroke-linejoin: miter; stroke-linecap: square"/>
   </g>
   <g id="patch_36">
    <path d="M 115.2 41.472 
L 439.854545 41.472 
" style="fill: none; stroke: #000000; stroke-width: 0.8; stroke-linejoin: miter; stroke-linecap: square"/>
   </g>
   <g id="legend_1">
    <g id="patch_37">
     <path d="M 326.97017 148.575125 
L 432.854545 148.575125 
Q 434.854545 148.575125 434.854545 146.575125 
L 434.854545 48.472 
Q 434.854545 46.472 432.854545 46.472 
L 326.97017 46.472 
Q 324.97017 46.472 324.97017 48.472 
L 324.97017 146.575125 
Q 324.97017 148.575125 326.97017 148.575125 
z
" style="fill: #ffffff; opacity: 0.8; stroke: #cccccc; stroke-linejoin: miter"/>
    </g>
    <g id="text_13">
     <text style="font: 10px 'Times'; text-anchor: start" x="358.802983" y="57.32825" transform="rotate(-0 358.802983 57.32825)">Classifiers</text>
    </g>
    <g id="patch_38">
     <path d="M 328.97017 71.506375 
L 348.97017 71.506375 
L 348.97017 64.506375 
L 328.97017 64.506375 
z
" style="fill: #145d76"/>
    </g>
    <g id="text_14">
     <text style="font: 10px 'Times'; text-anchor: start" x="356.97017" y="71.506375" transform="rotate(-0 356.97017 71.506375)">naive</text>
    </g>
    <g id="patch_39">
     <path d="M 328.97017 85.6845 
L 348.97017 85.6845 
L 348.97017 78.6845 
L 328.97017 78.6845 
z
" style="fill: #389993"/>
    </g>
    <g id="text_15">
     <text style="font: 10px 'Times'; text-anchor: start" x="356.97017" y="85.6845" transform="rotate(-0 356.97017 85.6845)">MLP</text>
    </g>
    <g id="patch_40">
     <path d="M 328.97017 99.862625 
L 348.97017 99.862625 
L 348.97017 92.862625 
L 328.97017 92.862625 
z
" style="fill: #bfa686"/>
    </g>
    <g id="text_16">
     <text style="font: 10px 'Times'; text-anchor: start" x="356.97017" y="99.862625" transform="rotate(-0 356.97017 99.862625)">logisticRegression</text>
    </g>
    <g id="patch_41">
     <path d="M 328.97017 114.04075 
L 348.97017 114.04075 
L 348.97017 107.04075 
L 328.97017 107.04075 
z
" style="fill: #d89932"/>
    </g>
    <g id="text_17">
     <text style="font: 10px 'Times'; text-anchor: start" x="356.97017" y="114.04075" transform="rotate(-0 356.97017 114.04075)">decisionTree</text>
    </g>
    <g id="patch_42">
     <path d="M 328.97017 128.218875 
L 348.97017 128.218875 
L 348.97017 121.218875 
L 328.97017 121.218875 
z
" style="fill: #efc2cb"/>
    </g>
    <g id="text_18">
     <text style="font: 10px 'Times'; text-anchor: start" x="356.97017" y="128.218875" transform="rotate(-0 356.97017 128.218875)">randomForest</text>
    </g>
    <g id="patch_43">
     <path d="M 328.97017 142.397 
L 348.97017 142.397 
L 348.97017 135.397 
L 328.97017 135.397 
z
" style="fill: #cd3733"/>
    </g>
    <g id="text_19">
     <text style="font: 10px 'Times'; text-anchor: start" x="356.97017" y="142.397" transform="rotate(-0 356.97017 142.397)">xgb</text>
    </g>
   </g>
  </g>
  <g id="axes_2">
   <g id="patch_44">
    <path d="M 504.785455 307.584 
L 829.44 307.584 
L 829.44 41.472 
L 504.785455 41.472 
z
" style="fill: #ffffff"/>
   </g>
   <g id="patch_45">
    <path d="M 512.901818 307.584 
L 523.723636 307.584 
L 523.723636 99.141646 
L 512.901818 99.141646 
z
" clip-path="url(#p48f9b257c6)" style="fill: #145d76"/>
   </g>
   <g id="patch_46">
    <path d="M 594.065455 307.584 
L 604.887273 307.584 
L 604.887273 99.141646 
L 594.065455 99.141646 
z
" clip-path="url(#p48f9b257c6)" style="fill: #145d76"/>
   </g>
   <g id="patch_47">
    <path d="M 675.229091 307.584 
L 686.050909 307.584 
L 686.050909 99.141646 
L 675.229091 99.141646 
z
" clip-path="url(#p48f9b257c6)" style="fill: #145d76"/>
   </g>
   <g id="patch_48">
    <path d="M 756.392727 307.584 
L 767.214545 307.584 
L 767.214545 99.141646 
L 756.392727 99.141646 
z
" clip-path="url(#p48f9b257c6)" style="fill: #145d76"/>
   </g>
   <g id="patch_49">
    <path d="M 523.723636 307.584 
L 534.545455 307.584 
L 534.545455 56.362014 
L 523.723636 56.362014 
z
" clip-path="url(#p48f9b257c6)" style="fill: #389993"/>
   </g>
   <g id="patch_50">
    <path d="M 604.887273 307.584 
L 615.709091 307.584 
L 615.709091 125.42639 
L 604.887273 125.42639 
z
" clip-path="url(#p48f9b257c6)" style="fill: #389993"/>
   </g>
   <g id="patch_51">
    <path d="M 686.050909 307.584 
L 696.872727 307.584 
L 696.872727 156.580568 
L 686.050909 156.580568 
z
" clip-path="url(#p48f9b257c6)" style="fill: #389993"/>
   </g>
   <g id="patch_52">
    <path d="M 767.214545 307.584 
L 778.036364 307.584 
L 778.036364 191.558908 
L 767.214545 191.558908 
z
" clip-path="url(#p48f9b257c6)" style="fill: #389993"/>
   </g>
   <g id="patch_53">
    <path d="M 534.545455 307.584 
L 545.367273 307.584 
L 545.367273 54.144 
L 534.545455 54.144 
z
" clip-path="url(#p48f9b257c6)" style="fill: #bfa686"/>
   </g>
   <g id="patch_54">
    <path d="M 615.709091 307.584 
L 626.530909 307.584 
L 626.530909 133.865042 
L 615.709091 133.865042 
z
" clip-path="url(#p48f9b257c6)" style="fill: #bfa686"/>
   </g>
   <g id="patch_55">
    <path d="M 696.872727 307.584 
L 707.694545 307.584 
L 707.694545 184.573438 
L 696.872727 184.573438 
z
" clip-path="url(#p48f9b257c6)" style="fill: #bfa686"/>
   </g>
   <g id="patch_56">
    <path d="M 778.036364 307.584 
L 788.858182 307.584 
L 788.858182 168.104044 
L 778.036364 168.104044 
z
" clip-path="url(#p48f9b257c6)" style="fill: #bfa686"/>
   </g>
   <g id="patch_57">
    <path d="M 545.367273 307.584 
L 556.189091 307.584 
L 556.189091 54.144 
L 545.367273 54.144 
z
" clip-path="url(#p48f9b257c6)" style="fill: #d89932"/>
   </g>
   <g id="patch_58">
    <path d="M 626.530909 307.584 
L 637.352727 307.584 
L 637.352727 129.301541 
L 626.530909 129.301541 
z
" clip-path="url(#p48f9b257c6)" style="fill: #d89932"/>
   </g>
   <g id="patch_59">
    <path d="M 707.694545 307.584 
L 718.516364 307.584 
L 718.516364 154.05662 
L 707.694545 154.05662 
z
" clip-path="url(#p48f9b257c6)" style="fill: #d89932"/>
   </g>
   <g id="patch_60">
    <path d="M 788.858182 307.584 
L 799.68 307.584 
L 799.68 198.340423 
L 788.858182 198.340423 
z
" clip-path="url(#p48f9b257c6)" style="fill: #d89932"/>
   </g>
   <g id="patch_61">
    <path d="M 556.189091 307.584 
L 567.010909 307.584 
L 567.010909 55.622676 
L 556.189091 55.622676 
z
" clip-path="url(#p48f9b257c6)" style="fill: #efc2cb"/>
   </g>
   <g id="patch_62">
    <path d="M 637.352727 307.584 
L 648.174545 307.584 
L 648.174545 130.805712 
L 637.352727 130.805712 
z
" clip-path="url(#p48f9b257c6)" style="fill: #efc2cb"/>
   </g>
   <g id="patch_63">
    <path d="M 718.516364 307.584 
L 729.338182 307.584 
L 729.338182 132.00395 
L 718.516364 132.00395 
z
" clip-path="url(#p48f9b257c6)" style="fill: #efc2cb"/>
   </g>
   <g id="patch_64">
    <path d="M 799.68 307.584 
L 810.501818 307.584 
L 810.501818 186.638485 
L 799.68 186.638485 
z
" clip-path="url(#p48f9b257c6)" style="fill: #efc2cb"/>
   </g>
   <g id="patch_65">
    <path d="M 567.010909 307.584 
L 577.832727 307.584 
L 577.832727 54.144 
L 567.010909 54.144 
z
" clip-path="url(#p48f9b257c6)" style="fill: #cd3733"/>
   </g>
   <g id="patch_66">
    <path d="M 648.174545 307.584 
L 658.996364 307.584 
L 658.996364 131.162634 
L 648.174545 131.162634 
z
" clip-path="url(#p48f9b257c6)" style="fill: #cd3733"/>
   </g>
   <g id="patch_67">
    <path d="M 729.338182 307.584 
L 740.16 307.584 
L 740.16 155.764746 
L 729.338182 155.764746 
z
" clip-path="url(#p48f9b257c6)" style="fill: #cd3733"/>
   </g>
   <g id="patch_68">
    <path d="M 810.501818 307.584 
L 821.323636 307.584 
L 821.323636 195.892959 
L 810.501818 195.892959 
z
" clip-path="url(#p48f9b257c6)" style="fill: #cd3733"/>
   </g>
   <g id="patch_69">
    <path d="M 545.367273 307.584 
L 545.367273 307.584 
L 545.367273 307.584 
L 545.367273 307.584 
z
" clip-path="url(#p48f9b257c6)" style="fill: #145d76"/>
   </g>
   <g id="patch_70">
    <path d="M 545.367273 307.584 
L 545.367273 307.584 
L 545.367273 307.584 
L 545.367273 307.584 
z
" clip-path="url(#p48f9b257c6)" style="fill: #389993"/>
   </g>
   <g id="patch_71">
    <path d="M 545.367273 307.584 
L 545.367273 307.584 
L 545.367273 307.584 
L 545.367273 307.584 
z
" clip-path="url(#p48f9b257c6)" style="fill: #bfa686"/>
   </g>
   <g id="patch_72">
    <path d="M 545.367273 307.584 
L 545.367273 307.584 
L 545.367273 307.584 
L 545.367273 307.584 
z
" clip-path="url(#p48f9b257c6)" style="fill: #d89932"/>
   </g>
   <g id="patch_73">
    <path d="M 545.367273 307.584 
L 545.367273 307.584 
L 545.367273 307.584 
L 545.367273 307.584 
z
" clip-path="url(#p48f9b257c6)" style="fill: #efc2cb"/>
   </g>
   <g id="patch_74">
    <path d="M 545.367273 307.584 
L 545.367273 307.584 
L 545.367273 307.584 
L 545.367273 307.584 
z
" clip-path="url(#p48f9b257c6)" style="fill: #cd3733"/>
   </g>
   <g id="matplotlib.axis_3">
    <g id="xtick_5">
     <g id="line2d_35">
      <g>
       <use xlink:href="#m03dbc7b070" x="545.367273" y="307.584" style="stroke: #000000; stroke-width: 0.8"/>
      </g>
     </g>
     <g id="text_20">
      <text style="font: 10px 'Times'; text-anchor: middle" x="545.367273" y="321.44025" transform="rotate(-0 545.367273 321.44025)">raw</text>
     </g>
    </g>
    <g id="xtick_6">
     <g id="line2d_36">
      <g>
       <use xlink:href="#m03dbc7b070" x="626.530909" y="307.584" style="stroke: #000000; stroke-width: 0.8"/>
      </g>
     </g>
     <g id="text_21">
      <text style="font: 10px 'Times'; text-anchor: middle" x="626.530909" y="321.44025" transform="rotate(-0 626.530909 321.44025)">pca</text>
     </g>
    </g>
    <g id="xtick_7">
     <g id="line2d_37">
      <g>
       <use xlink:href="#m03dbc7b070" x="707.694545" y="307.584" style="stroke: #000000; stroke-width: 0.8"/>
      </g>
     </g>
     <g id="text_22">
      <text style="font: 10px 'Times'; text-anchor: middle" x="707.694545" y="321.44025" transform="rotate(-0 707.694545 321.44025)">umap</text>
     </g>
    </g>
    <g id="xtick_8">
     <g id="line2d_38">
      <g>
       <use xlink:href="#m03dbc7b070" x="788.858182" y="307.584" style="stroke: #000000; stroke-width: 0.8"/>
      </g>
     </g>
     <g id="text_23">
      <text style="font: 10px 'Times'; text-anchor: middle" x="788.858182" y="321.44025" transform="rotate(-0 788.858182 321.44025)">pca_umap</text>
     </g>
    </g>
    <g id="text_24">
     <text style="font: 10px 'Times'; text-anchor: middle" x="667.112727" y="334.46525" transform="rotate(-0 667.112727 334.46525)">Data Type</text>
    </g>
   </g>
   <g id="matplotlib.axis_4">
    <g id="ytick_7">
     <g id="line2d_39">
      <g>
       <use xlink:href="#m71e3c5c0c1" x="504.785455" y="307.584" style="stroke: #000000; stroke-width: 0.8"/>
      </g>
     </g>
     <g id="text_25">
      <text style="font: 10px 'Times'; text-anchor: end" x="497.785455" y="311.012125" transform="rotate(-0 497.785455 311.012125)">0.0</text>
     </g>
    </g>
    <g id="ytick_8">
     <g id="line2d_40">
      <g>
       <use xlink:href="#m71e3c5c0c1" x="504.785455" y="256.595166" style="stroke: #000000; stroke-width: 0.8"/>
      </g>
     </g>
     <g id="text_26">
      <text style="font: 10px 'Times'; text-anchor: end" x="497.785455" y="260.023291" transform="rotate(-0 497.785455 260.023291)">0.2</text>
     </g>
    </g>
    <g id="ytick_9">
     <g id="line2d_41">
      <g>
       <use xlink:href="#m71e3c5c0c1" x="504.785455" y="205.606332" style="stroke: #000000; stroke-width: 0.8"/>
      </g>
     </g>
     <g id="text_27">
      <text style="font: 10px 'Times'; text-anchor: end" x="497.785455" y="209.034457" transform="rotate(-0 497.785455 209.034457)">0.4</text>
     </g>
    </g>
    <g id="ytick_10">
     <g id="line2d_42">
      <g>
       <use xlink:href="#m71e3c5c0c1" x="504.785455" y="154.617498" style="stroke: #000000; stroke-width: 0.8"/>
      </g>
     </g>
     <g id="text_28">
      <text style="font: 10px 'Times'; text-anchor: end" x="497.785455" y="158.045623" transform="rotate(-0 497.785455 158.045623)">0.6</text>
     </g>
    </g>
    <g id="ytick_11">
     <g id="line2d_43">
      <g>
       <use xlink:href="#m71e3c5c0c1" x="504.785455" y="103.628664" style="stroke: #000000; stroke-width: 0.8"/>
      </g>
     </g>
     <g id="text_29">
      <text style="font: 10px 'Times'; text-anchor: end" x="497.785455" y="107.056789" transform="rotate(-0 497.785455 107.056789)">0.8</text>
     </g>
    </g>
    <g id="ytick_12">
     <g id="line2d_44">
      <g>
       <use xlink:href="#m71e3c5c0c1" x="504.785455" y="52.639829" style="stroke: #000000; stroke-width: 0.8"/>
      </g>
     </g>
     <g id="text_30">
      <text style="font: 10px 'Times'; text-anchor: end" x="497.785455" y="56.067954" transform="rotate(-0 497.785455 56.067954)">1.0</text>
     </g>
    </g>
    <g id="text_31">
     <text style="font: 10px 'Times'; text-anchor: middle" x="479.10733" y="174.528" transform="rotate(-90 479.10733 174.528)">Weighted F1</text>
    </g>
   </g>
   <g id="line2d_45">
    <path clip-path="url(#p48f9b257c6)" style="fill: none; stroke: #424242; stroke-width: 2.25; stroke-linecap: square"/>
   </g>
   <g id="line2d_46">
    <path clip-path="url(#p48f9b257c6)" style="fill: none; stroke: #424242; stroke-width: 2.25; stroke-linecap: square"/>
   </g>
   <g id="line2d_47">
    <path clip-path="url(#p48f9b257c6)" style="fill: none; stroke: #424242; stroke-width: 2.25; stroke-linecap: square"/>
   </g>
   <g id="line2d_48">
    <path clip-path="url(#p48f9b257c6)" style="fill: none; stroke: #424242; stroke-width: 2.25; stroke-linecap: square"/>
   </g>
   <g id="line2d_49">
    <path clip-path="url(#p48f9b257c6)" style="fill: none; stroke: #424242; stroke-width: 2.25; stroke-linecap: square"/>
   </g>
   <g id="line2d_50">
    <path clip-path="url(#p48f9b257c6)" style="fill: none; stroke: #424242; stroke-width: 2.25; stroke-linecap: square"/>
   </g>
   <g id="line2d_51">
    <path clip-path="url(#p48f9b257c6)" style="fill: none; stroke: #424242; stroke-width: 2.25; stroke-linecap: square"/>
   </g>
   <g id="line2d_52">
    <path clip-path="url(#p48f9b257c6)" style="fill: none; stroke: #424242; stroke-width: 2.25; stroke-linecap: square"/>
   </g>
   <g id="line2d_53">
    <path clip-path="url(#p48f9b257c6)" style="fill: none; stroke: #424242; stroke-width: 2.25; stroke-linecap: square"/>
   </g>
   <g id="line2d_54">
    <path clip-path="url(#p48f9b257c6)" style="fill: none; stroke: #424242; stroke-width: 2.25; stroke-linecap: square"/>
   </g>
   <g id="line2d_55">
    <path clip-path="url(#p48f9b257c6)" style="fill: none; stroke: #424242; stroke-width: 2.25; stroke-linecap: square"/>
   </g>
   <g id="line2d_56">
    <path clip-path="url(#p48f9b257c6)" style="fill: none; stroke: #424242; stroke-width: 2.25; stroke-linecap: square"/>
   </g>
   <g id="line2d_57">
    <path clip-path="url(#p48f9b257c6)" style="fill: none; stroke: #424242; stroke-width: 2.25; stroke-linecap: square"/>
   </g>
   <g id="line2d_58">
    <path clip-path="url(#p48f9b257c6)" style="fill: none; stroke: #424242; stroke-width: 2.25; stroke-linecap: square"/>
   </g>
   <g id="line2d_59">
    <path clip-path="url(#p48f9b257c6)" style="fill: none; stroke: #424242; stroke-width: 2.25; stroke-linecap: square"/>
   </g>
   <g id="line2d_60">
    <path clip-path="url(#p48f9b257c6)" style="fill: none; stroke: #424242; stroke-width: 2.25; stroke-linecap: square"/>
   </g>
   <g id="line2d_61">
    <path clip-path="url(#p48f9b257c6)" style="fill: none; stroke: #424242; stroke-width: 2.25; stroke-linecap: square"/>
   </g>
   <g id="line2d_62">
    <path clip-path="url(#p48f9b257c6)" style="fill: none; stroke: #424242; stroke-width: 2.25; stroke-linecap: square"/>
   </g>
   <g id="line2d_63">
    <path clip-path="url(#p48f9b257c6)" style="fill: none; stroke: #424242; stroke-width: 2.25; stroke-linecap: square"/>
   </g>
   <g id="line2d_64">
    <path clip-path="url(#p48f9b257c6)" style="fill: none; stroke: #424242; stroke-width: 2.25; stroke-linecap: square"/>
   </g>
   <g id="line2d_65">
    <path clip-path="url(#p48f9b257c6)" style="fill: none; stroke: #424242; stroke-width: 2.25; stroke-linecap: square"/>
   </g>
   <g id="line2d_66">
    <path clip-path="url(#p48f9b257c6)" style="fill: none; stroke: #424242; stroke-width: 2.25; stroke-linecap: square"/>
   </g>
   <g id="line2d_67">
    <path clip-path="url(#p48f9b257c6)" style="fill: none; stroke: #424242; stroke-width: 2.25; stroke-linecap: square"/>
   </g>
   <g id="line2d_68">
    <path clip-path="url(#p48f9b257c6)" style="fill: none; stroke: #424242; stroke-width: 2.25; stroke-linecap: square"/>
   </g>
   <g id="patch_75">
    <path d="M 504.785455 307.584 
L 504.785455 41.472 
" style="fill: none; stroke: #000000; stroke-width: 0.8; stroke-linejoin: miter; stroke-linecap: square"/>
   </g>
   <g id="patch_76">
    <path d="M 829.44 307.584 
L 829.44 41.472 
" style="fill: none; stroke: #000000; stroke-width: 0.8; stroke-linejoin: miter; stroke-linecap: square"/>
   </g>
   <g id="patch_77">
    <path d="M 504.785455 307.584 
L 829.44 307.584 
" style="fill: none; stroke: #000000; stroke-width: 0.8; stroke-linejoin: miter; stroke-linecap: square"/>
   </g>
   <g id="patch_78">
    <path d="M 504.785455 41.472 
L 829.44 41.472 
" style="fill: none; stroke: #000000; stroke-width: 0.8; stroke-linejoin: miter; stroke-linecap: square"/>
   </g>
   <g id="legend_2">
    <g id="patch_79">
     <path d="M 716.555625 148.575125 
L 822.44 148.575125 
Q 824.44 148.575125 824.44 146.575125 
L 824.44 48.472 
Q 824.44 46.472 822.44 46.472 
L 716.555625 46.472 
Q 714.555625 46.472 714.555625 48.472 
L 714.555625 146.575125 
Q 714.555625 148.575125 716.555625 148.575125 
z
" style="fill: #ffffff; opacity: 0.8; stroke: #cccccc; stroke-linejoin: miter"/>
    </g>
    <g id="text_32">
     <text style="font: 10px 'Times'; text-anchor: start" x="748.388438" y="57.32825" transform="rotate(-0 748.388438 57.32825)">Classifiers</text>
    </g>
    <g id="patch_80">
     <path d="M 718.555625 71.506375 
L 738.555625 71.506375 
L 738.555625 64.506375 
L 718.555625 64.506375 
z
" style="fill: #145d76"/>
    </g>
    <g id="text_33">
     <text style="font: 10px 'Times'; text-anchor: start" x="746.555625" y="71.506375" transform="rotate(-0 746.555625 71.506375)">naive</text>
    </g>
    <g id="patch_81">
     <path d="M 718.555625 85.6845 
L 738.555625 85.6845 
L 738.555625 78.6845 
L 718.555625 78.6845 
z
" style="fill: #389993"/>
    </g>
    <g id="text_34">
     <text style="font: 10px 'Times'; text-anchor: start" x="746.555625" y="85.6845" transform="rotate(-0 746.555625 85.6845)">MLP</text>
    </g>
    <g id="patch_82">
     <path d="M 718.555625 99.862625 
L 738.555625 99.862625 
L 738.555625 92.862625 
L 718.555625 92.862625 
z
" style="fill: #bfa686"/>
    </g>
    <g id="text_35">
     <text style="font: 10px 'Times'; text-anchor: start" x="746.555625" y="99.862625" transform="rotate(-0 746.555625 99.862625)">logisticRegression</text>
    </g>
    <g id="patch_83">
     <path d="M 718.555625 114.04075 
L 738.555625 114.04075 
L 738.555625 107.04075 
L 718.555625 107.04075 
z
" style="fill: #d89932"/>
    </g>
    <g id="text_36">
     <text style="font: 10px 'Times'; text-anchor: start" x="746.555625" y="114.04075" transform="rotate(-0 746.555625 114.04075)">decisionTree</text>
    </g>
    <g id="patch_84">
     <path d="M 718.555625 128.218875 
L 738.555625 128.218875 
L 738.555625 121.218875 
L 718.555625 121.218875 
z
" style="fill: #efc2cb"/>
    </g>
    <g id="text_37">
     <text style="font: 10px 'Times'; text-anchor: start" x="746.555625" y="128.218875" transform="rotate(-0 746.555625 128.218875)">randomForest</text>
    </g>
    <g id="patch_85">
     <path d="M 718.555625 142.397 
L 738.555625 142.397 
L 738.555625 135.397 
L 718.555625 135.397 
z
" style="fill: #cd3733"/>
    </g>
    <g id="text_38">
     <text style="font: 10px 'Times'; text-anchor: start" x="746.555625" y="142.397" transform="rotate(-0 746.555625 142.397)">xgb</text>
    </g>
   </g>
  </g>
 </g>
 <defs>
  <clipPath id="p9b3633577c">
   <rect x="115.2" y="41.472" width="324.654545" height="266.112"/>
  </clipPath>
  <clipPath id="p48f9b257c6">
   <rect x="504.785455" y="41.472" width="324.654545" height="266.112"/>
  </clipPath>
 </defs>
</svg>
